<?xml version="1.0" standalone="no"?><!DOCTYPE svg PUBLIC "-//W3C//DTD SVG 1.1//EN" "http://www.w3.org/Graphics/SVG/1.1/DTD/svg11.dtd"><svg t="1566268768123" class="icon" viewBox="0 0 1039 1024" version="1.1" xmlns="http://www.w3.org/2000/svg" p-id="7929" xmlns:xlink="http://www.w3.org/1999/xlink" width="48.703125" height="48"><defs><style type="text/css"></style></defs><path d="M950.271912 210.024277L614.428388 24.538072a194.607389 194.607389 0 0 0-189.326205 0.06637L89.647399 210.972425A171.975095 171.975095 0 0 0 0 362.031374c0 1.640296 0.075852 3.290074 0.208593 4.93037l41.595255 490.429584A173.359391 173.359391 0 0 0 215.248573 1023.999905h608.047351a174.335984 174.335984 0 0 0 173.454206-168.74191l42.676144-485.925881c0.151704-1.687704 0.227556-3.403852 0.227556-5.101037v-3.290073a171.88028 171.88028 0 0 0-89.381918-150.916727zM634.576534 907.406138H405.067814V651.14068c0-23.656294 13.037036-41.339255 24.699257-41.339255h180.119687c9.946073 0 24.689775 17.360591 24.689776 41.339255z m245.902199-60.96592c-0.094815 1.042963-0.151704 2.066963-0.189629 3.100444a58.263698 58.263698 0 0 1-56.983699 57.865476h-72.135104V651.14068c0-87.087399-63.374216-157.923541-141.274061-157.92354H429.75759c-79.236733 0-141.293024 69.366512-141.293024 157.92354v256.265458h-73.225475a57.893921 57.893921 0 0 1-56.983698-55.741624c-0.028444-0.948148-0.094815-1.896296-0.170667-2.844444l-41.462515-488.79877a56.41481 56.41481 0 0 1 29.250368-46.904885l335.739228-186.519686a77.586956 77.586956 0 0 1 76.420734 0l336.118487 185.628427a56.206217 56.206217 0 0 1 28.899553 48.715848z" fill="#13227a" p-id="7930"></path></svg>